<svg xmlns="http://www.w3.org/2000/svg" viewBox="0 0 800 600" width="800" height="600">
  <!-- Background -->
  <rect width="800" height="600" fill="#f7f3e8"/>
  
  <!-- Back wall with bookshelves -->
  <rect x="50" y="100" width="700" height="400" fill="#f9f6f0"/>
  
  <!-- Floor -->
  <rect x="0" y="500" width="800" height="100" fill="#e5e0d5"/>
  
  <!-- Bookshelves on back wall -->
  <rect x="75" y="125" width="150" height="375" fill="#8B4513"/>
  <rect x="85" y="135" width="130" height="355" fill="#6b3510"/>
  
  <rect x="575" y="125" width="150" height="375" fill="#8B4513"/>
  <rect x="585" y="135" width="130" height="355" fill="#6b3510"/>
  
  <!-- Shelf dividers -->
  <rect x="85" y="200" width="130" height="5" fill="#8B4513"/>
  <rect x="85" y="270" width="130" height="5" fill="#8B4513"/>
  <rect x="85" y="340" width="130" height="5" fill="#8B4513"/>
  <rect x="85" y="410" width="130" height="5" fill="#8B4513"/>
  
  <rect x="585" y="200" width="130" height="5" fill="#8B4513"/>
  <rect x="585" y="270" width="130" height="5" fill="#8B4513"/>
  <rect x="585" y="340" width="130" height="5" fill="#8B4513"/>
  <rect x="585" y="410" width="130" height="5" fill="#8B4513"/>
  
  <!-- Books on shelves (simplified) -->
  <rect x="95" y="140" width="110" height="60" fill="#b54141"/>
  <rect x="95" y="205" width="110" height="65" fill="#5b68ad"/>
  <rect x="95" y="275" width="110" height="65" fill="#469e47"/>
  <rect x="95" y="345" width="110" height="65" fill="#d6973e"/>
  <rect x="95" y="415" width="110" height="65" fill="#8541b5"/>
  
  <rect x="595" y="140" width="110" height="60" fill="#41a3b5"/>
  <rect x="595" y="205" width="110" height="65" fill="#b56841"/>
  <rect x="595" y="275" width="110" height="65" fill="#8795ce"/>
  <rect x="595" y="345" width="110" height="65" fill="#67b541"/>
  <rect x="595" y="415" width="110" height="65" fill="#b5417d"/>
  
  <!-- Author/podium area -->
  <rect x="300" y="150" width="200" height="75" fill="#8B4513"/>
  <rect x="375" y="225" width="50" height="100" fill="#6b3510"/>
  
  <!-- Author (simplified) -->
  <circle cx="400" cy="180" r="30" fill="#e0c8a0"/>  <!-- head -->
  <rect x="385" y="210" width="30" height="80" fill="#5d8aa8"/> <!-- body -->
  <rect x="375" y="210" width="10" height="60" fill="#5d8aa8"/> <!-- left arm -->
  <rect x="415" y="210" width="10" height="60" fill="#5d8aa8"/> <!-- right arm -->
  
  <!-- Book in author's hand -->
  <rect x="425" y="240" width="30" height="40" fill="#e65c4f"/>
  
  <!-- Chairs for audience -->
  <!-- Row 1 -->
  <rect x="250" y="320" width="40" height="10" fill="#7a947a"/>
  <rect x="255" y="330" width="30" height="60" fill="#6b836b"/>
  
  <rect x="300" y="320" width="40" height="10" fill="#7a947a"/>
  <rect x="305" y="330" width="30" height="60" fill="#6b836b"/>
  
  <rect x="350" y="320" width="40" height="10" fill="#7a947a"/>
  <rect x="355" y="330" width="30" height="60" fill="#6b836b"/>
  
  <rect x="400" y="320" width="40" height="10" fill="#7a947a"/>
  <rect x="405" y="330" width="30" height="60" fill="#6b836b"/>
  
  <rect x="450" y="320" width="40" height="10" fill="#7a947a"/>
  <rect x="455" y="330" width="30" height="60" fill="#6b836b"/>
  
  <rect x="500" y="320" width="40" height="10" fill="#7a947a"/>
  <rect x="505" y="330" width="30" height="60" fill="#6b836b"/>
  
  <!-- Row 2 -->
  <rect x="250" y="400" width="40" height="10" fill="#7a947a"/>
  <rect x="255" y="410" width="30" height="60" fill="#6b836b"/>
  
  <rect x="300" y="400" width="40" height="10" fill="#7a947a"/>
  <rect x="305" y="410" width="30" height="60" fill="#6b836b"/>
  
  <rect x="350" y="400" width="40" height="10" fill="#7a947a"/>
  <rect x="355" y="410" width="30" height="60" fill="#6b836b"/>
  
  <rect x="400" y="400" width="40" height="10" fill="#7a947a"/>
  <rect x="405" y="410" width="30" height="60" fill="#6b836b"/>
  
  <rect x="450" y="400" width="40" height="10" fill="#7a947a"/>
  <rect x="455" y="410" width="30" height="60" fill="#6b836b"/>
  
  <rect x="500" y="400" width="40" height="10" fill="#7a947a"/>
  <rect x="505" y="410" width="30" height="60" fill="#6b836b"/>
  
  <!-- Audience (simplified) -->
  <!-- Row 1 -->
  <circle cx="270" cy="340" r="15" fill="#e0c8a0"/>
  <rect x="265" y="355" width="10" height="25" fill="#41a3b5"/>
  
  <circle cx="320" cy="340" r="15" fill="#e0c8a0"/>
  <rect x="315" y="355" width="10" height="25" fill="#b56841"/>
  
  <circle cx="370" cy="340" r="15" fill="#e0c8a0"/>
  <rect x="365" y="355" width="10" height="25" fill="#8795ce"/>
  
  <circle cx="420" cy="340" r="15" fill="#e0c8a0"/>
  <rect x="415" y="355" width="10" height="25" fill="#67b541"/>
  
  <circle cx="470" cy="340" r="15" fill="#e0c8a0"/>
  <rect x="465" y="355" width="10" height="25" fill="#b5417d"/>
  
  <!-- Row 2 -->
  <circle cx="270" cy="420" r="15" fill="#e0c8a0"/>
  <rect x="265" y="435" width="10" height="25" fill="#5b68ad"/>
  
  <circle cx="370" cy="420" r="15" fill="#e0c8a0"/>
  <rect x="365" y="435" width="10" height="25" fill="#d6973e"/>
  
  <circle cx="470" cy="420" r="15" fill="#e0c8a0"/>
  <rect x="465" y="435" width="10" height="25" fill="#8541b5"/>
  
  <!-- Event banner -->
  <rect x="250" y="125" width="300" height="50" fill="#3d6a80"/>
  <text x="400" y="155" font-family="Georgia, serif" font-size="20" fill="#ffffff" text-anchor="middle" font-weight="bold">AUTHOR READING EVENT</text>
  
  <!-- Text -->
  <text x="400" y="560" font-family="Arial" font-size="20" fill="#555" text-anchor="middle">Bookshop Author Event</text>
</svg>